mtllib parkour.mtl
o Default
v 0 -0.00011731273070682024 0.9999499950002501
v 0 -0.0000173127312068757 -0.00004999999974997227
v 1 -0.0000173127312068757 -0.00004999999974997227
v 1 -0.00011731273070682024 0.9999499950002501
v 0 -0.000017312731206875704 -0.00004999999974997227
v 0 0.00007997353450839868 -0.9999499950002501
v 1 0.00007789713391468815 -0.9999499950002501
v 1 -0.000017312731206875704 -0.00004999999974997227
v -1 -0.000010173474121483433 0.00004999999974997227
v -1 0.0000898265253784611 -0.9999499950002501
v 0 0.00007997353450839868 -0.9999499950002501
v 0 -0.0000173127312068757 -0.00004999999974997227
v -1 -0.000050618929423960675 0.9999499950002501
v -1 -0.000010173474121483433 0.00004999999974997227
v 0 -0.0000173127312068757 -0.00004999999974997227
v 0 -0.00011731273070682024 0.9999499950002501
v 3 0.000005984764801633688 0.00004999999974997227
v 3 0.00010598476430157822 -0.9999499950002501
v 4 0.00010598476430157822 -0.9999499950002501
v 4 0.000005984764801633688 0.00004999999974997227
v 3 -0.000053954992374911994 0.9999499950002501
v 3 0.000005984764801633688 0.00004999999974997227
v 4 0.000005984764801633688 0.00004999999974997227
v 4 -0.000053954992374911994 0.9999499950002501
v 4 -0.000053954992374911994 0.9999499950002501
v 4 0.000005984764801633688 0.00004999999974997227
v 5 0.0000016939514029326992 -0.00004999999974997227
v 5 -0.00009830604809701184 0.9999499950002501
v 5 -0.00009830604809701184 0.9999499950002501
v 5 0.0000016939514029326992 -0.00004999999974997227
v 6 0.000011281772783281549 -0.00004999999974997227
v 6 -0.000088718226716663 0.9999499950002501
v 5 0.0000016939514029326992 -0.00004999999974997227
v 5 0.000054736518233959034 -0.9999499950002501
v 6 0.000054736518233959034 -0.9999499950002501
v 6 0.000011281772783281549 -0.00004999999974997227
v 4 0.000005984764801633688 0.00004999999974997227
v 4 0.00010598476430157822 -0.9999499950002501
v 5 0.000054736518233959034 -0.9999499950002501
v 5 0.0000016939514029326992 -0.00004999999974997227
v 4 0.00010598476430156989 -0.9999499950002502
v 4 0.5001974499885703 -1.9998499900007503
v 5 0.5001943384807607 -1.9998499900007503
v 5 0.00005473651823395542 -0.9999499950002502
v 5 0.00005473651823395542 -0.9999499950002502
v 5 0.5001943384807603 -1.9998499900007503
v 6 0.5001943384807603 -1.9998499900007503
v 6 0.00005473651823395542 -0.9999499950002502
v 5 0.500201545576112 -1.9997999900010004
v 5 1.0003015455756117 -2.999799985001
v 6 1.0003015455756117 -2.999799985001
v 6 0.500201545576112 -1.9997999900010004
v 4 0.5002070528248062 -1.9997999900010004
v 4 1.000307052824306 -2.999799985001
v 5 1.0003015455756121 -2.999799985001
v 5 0.500201545576112 -1.9997999900010004
v 4 1.0003089813318717 -2.999749985001251
v 4 1.000408981331372 -3.9997499800012504
v 5 1.000408981331372 -3.9997499800012504
v 5 1.0003089813318717 -2.999749985001251
v 4 1.000408981331372 -3.9997499800012504
v 4 1.0005203139089658 -4.99964997500175
v 5 1.0005203139089658 -4.99964997500175
v 5 1.000408981331372 -3.9997499800012504
v 5 1.000408981331372 -3.9997499800012504
v 5 1.0005203139089658 -4.99964997500175
v 6 1.0005083798421865 -4.99964997500175
v 6 1.0004083798426864 -3.9996499800017506
v 5 1.0003089813318717 -2.999749985001251
v 5 1.000408981331372 -3.9997499800012504
v 6 1.0004083798426864 -3.9996499800017506
v 6 1.000281602771195 -2.999749985001251
v 5 1.0005203139089658 -4.99964997500175
v 5 1.0006042376341138 -5.99954997000225
v 6 1.0006042376341138 -5.99954997000225
v 6 1.0005083798421865 -4.99964997500175
v 4 1.0005203139089658 -4.99964997500175
v 4 1.000591970868118 -5.99954997000225
v 5 1.0006042376341138 -5.99954997000225
v 5 1.0005203139089658 -4.99964997500175
v 1 1.0004978117792818 -4.9995499750022505
v 1 1.0005978117787815 -5.99954997000225
v 2 1.0005978117787815 -5.99954997000225
v 2 1.0004978117792818 -4.9995499750022505
v 1 1.0003903596954515 -3.9996499800017506
v 1 1.0004978117792818 -4.9995499750022505
v 2 1.0004978117792818 -4.9995499750022505
v 2 1.0003903596954515 -3.9996499800017506
v 0 1.000391677371978 -3.9996499800017506
v 0 1.0004916773714783 -4.99964997500175
v 1 1.0004978117792818 -4.9995499750022505
v 1 1.0003903596954515 -3.9996499800017506
v 0 1.0004916773714783 -4.99964997500175
v 0 1.0006048670147787 -5.99954997000225
v 1 1.0005978117787815 -5.99954997000225
v 1 1.0004978117792818 -4.9995499750022505
vt 0 0.9375
vt 0.0625 1
vt 0 1
vt 0 0.9375
vt 0.0625 0.9375
vt 0.0625 1
vt 0 0.9375
vt 0.0625 1
vt 0 1
vt 0 0.9375
vt 0.0625 0.9375
vt 0.0625 1
vt 0 0.9375
vt 0.0625 1
vt 0 1
vt 0 0.9375
vt 0.0625 0.9375
vt 0.0625 1
vt 0 0.9375
vt 0.0625 1
vt 0 1
vt 0 0.9375
vt 0.0625 0.9375
vt 0.0625 1
vt 0 0.9375
vt 0.0625 1
vt 0 1
vt 0 0.9375
vt 0.0625 0.9375
vt 0.0625 1
vt 0 0.9375
vt 0.0625 1
vt 0 1
vt 0 0.9375
vt 0.0625 0.9375
vt 0.0625 1
vt 0 0.9375
vt 0.0625 1
vt 0 1
vt 0 0.9375
vt 0.0625 0.9375
vt 0.0625 1
vt 0 0.9375
vt 0.0625 1
vt 0 1
vt 0 0.9375
vt 0.0625 0.9375
vt 0.0625 1
vt 0 0.9375
vt 0.0625 1
vt 0 1
vt 0 0.9375
vt 0.0625 0.9375
vt 0.0625 1
vt 0 0.9375
vt 0.0625 1
vt 0 1
vt 0 0.9375
vt 0.0625 0.9375
vt 0.0625 1
vt 0 0.875
vt 0.0625 0.9375
vt 0 0.9375
vt 0 0.875
vt 0.0625 0.875
vt 0.0625 0.9375
vt 0 0.875
vt 0.0625 0.9375
vt 0 0.9375
vt 0 0.875
vt 0.0625 0.875
vt 0.0625 0.9375
vt 0 0.875
vt 0.0625 0.9375
vt 0 0.9375
vt 0 0.875
vt 0.0625 0.875
vt 0.0625 0.9375
vt 0 0.875
vt 0.0625 0.9375
vt 0 0.9375
vt 0 0.875
vt 0.0625 0.875
vt 0.0625 0.9375
vt 0 0.9375
vt 0.0625 1
vt 0 1
vt 0 0.9375
vt 0.0625 0.9375
vt 0.0625 1
vt 0 0.9375
vt 0.0625 1
vt 0 1
vt 0 0.9375
vt 0.0625 0.9375
vt 0.0625 1
vt 0 0.9375
vt 0.0625 1
vt 0 1
vt 0 0.9375
vt 0.0625 0.9375
vt 0.0625 1
vt 0 0.9375
vt 0.0625 1
vt 0 1
vt 0 0.9375
vt 0.0625 0.9375
vt 0.0625 1
vt 0 0.9375
vt 0.0625 1
vt 0 1
vt 0 0.9375
vt 0.0625 0.9375
vt 0.0625 1
vt 0 0.9375
vt 0.0625 1
vt 0 1
vt 0 0.9375
vt 0.0625 0.9375
vt 0.0625 1
vt 0 0.9375
vt 0.0625 1
vt 0 1
vt 0 0.9375
vt 0.0625 0.9375
vt 0.0625 1
vt 0 0.9375
vt 0.0625 1
vt 0 1
vt 0 0.9375
vt 0.0625 0.9375
vt 0.0625 1
vt 0 0.9375
vt 0.0625 1
vt 0 1
vt 0 0.9375
vt 0.0625 0.9375
vt 0.0625 1
vt 0 0.9375
vt 0.0625 1
vt 0 1
vt 0 0.9375
vt 0.0625 0.9375
vt 0.0625 1
vn 0 0.999999995 0.00009999999949994454
vn 0 0.999999995 0.00009999999949994454
vn 0 0.999999995 0.00009999999949994454
vn 0 0.999999995 0.00009999999949994454
vn 0 0.999999995 0.00009999999949994454
vn 0 0.999999995 0.00009999999949994454
vn 0.000002076400583877922 0.9999999952645889 0.0000972959953405493
vn 0.000002076400583877922 0.9999999952645889 0.0000972959953405493
vn 0.000002076400583877922 0.9999999952645889 0.0000972959953405493
vn 0 0.9999999954666342 0.0000952193871047025
vn 0 0.9999999954666342 0.0000952193871047025
vn 0 0.9999999954666342 0.0000952193871047025
vn 0.000009852990820319193 0.9999999949514593 0.00009999999949509047
vn 0.000009852990820319193 0.9999999949514593 0.00009999999949509047
vn 0.000009852990820319193 0.9999999949514593 0.00009999999949509047
vn 0.000007148986650903079 0.9999999952411907 0.00009729599533827275
vn 0.000007148986650903079 0.9999999952411907 0.00009729599533827275
vn 0.000007148986650903079 0.9999999952411907 0.00009729599533827275
vn 0.000007143302029391468 0.9999999991564056 0.00004044950042062702
vn 0.000007143302029391468 0.9999999991564056 0.00004044950042062702
vn 0.000007143302029391468 0.9999999991564056 0.00004044950042062702
vn 0.00006669380080106144 0.9999999927759686 0.0000999999992775414
vn 0.00006669380080106144 0.9999999927759686 0.0000999999992775414
vn 0.00006669380080106144 0.9999999927759686 0.0000999999992775414
vn 0 0.999999995 0.00009999999949994454
vn 0 0.999999995 0.00009999999949994454
vn 0 0.999999995 0.00009999999949994454
vn 0 0.999999995 0.00009999999949994454
vn 0 0.999999995 0.00009999999949994454
vn 0 0.999999995 0.00009999999949994454
vn 0 0.9999999982032535 0.00005994575194374229
vn 0 0.9999999982032535 0.00005994575194374229
vn 0 0.9999999982032535 0.00005994575194374229
vn 0 0.9999999982032535 0.00005994575194374229
vn 0 0.9999999982032535 0.00005994575194374229
vn 0 0.9999999982032535 0.00005994575194374229
vn 0.000004296807966116217 0.999999998194022 0.0000599457519431889
vn 0.000004296807966116217 0.999999998194022 0.0000599457519431889
vn 0.000004296807966116217 0.999999998194022 0.0000599457519431889
vn 0.00004435105545672495 0.9999999940164921 0.00009999999940159374
vn 0.00004435105545672495 0.9999999940164921 0.00009999999940159374
vn 0.00004435105545672495 0.9999999940164921 0.00009999999940159374
vn -0.000009587821331969057 0.999999994954037 0.00009999999949534824
vn -0.000009587821331969057 0.999999994954037 0.00009999999949534824
vn -0.000009587821331969057 0.999999994954037 0.00009999999949534824
vn -0.00000958782133196905 0.999999994954037 0.00009999999949534824
vn -0.00000958782133196905 0.999999994954037 0.00009999999949534824
vn -0.00000958782133196905 0.999999994954037 0.00009999999949534824
vn 0 0.9999999985929616 0.00005304787180878712
vn 0 0.9999999985929616 0.00005304787180878712
vn 0 0.9999999985929616 0.00005304787180878712
vn -0.00000958782137085394 0.9999999990096906 0.00004345909153407097
vn -0.00000958782137085394 0.9999999990096906 0.00004345909153407097
vn -0.00000958782137085394 0.9999999990096906 0.00004345909153407097
vn 0.00005124824574407921 0.9999999936868087 0.0000999999993686254
vn 0.00005124824574407921 0.9999999936868087 0.0000999999993686254
vn 0.00005124824574407921 0.9999999936868087 0.0000999999993686254
vn 0.000004296118179778356 0.9999999985837332 0.00005304787180829757
vn 0.000004296118179778356 0.9999999985837332 0.00005304787180829757
vn 0.000004296118179778356 0.9999999985837332 0.00005304787180829757
vn 0.0000027828596824243797 0.8943765700389794 0.4473148230917086
vn 0.0000027828596824243797 0.8943765700389794 0.4473148230917086
vn 0.0000027828596824243797 0.8943765700389794 0.4473148230917086
vn 0.000045834347692032285 0.8943593431775335 0.4473492630711081
vn 0.000045834347692032285 0.8943593431775335 0.4473492630711081
vn 0.000045834347692032285 0.8943593431775335 0.4473492630711081
vn 0 0.894359344116963 0.4473492635410008
vn 0 0.894359344116963 0.4473492635410008
vn 0 0.894359344116963 0.4473492635410008
vn 0 0.894359344116963 0.4473492635410008
vn 0 0.894359344116963 0.4473492635410008
vn 0 0.894359344116963 0.4473492635410008
vn 0 0.89439141158698 0.44728514717062706
vn 0 0.89439141158698 0.44728514717062706
vn 0 0.89439141158698 0.44728514717062706
vn 0 0.89439141158698 0.44728514717062706
vn 0 0.89439141158698 0.44728514717062706
vn 0 0.89439141158698 0.44728514717062706
vn 0.000004925635933300638 0.89439141157613 0.4472851471652012
vn 0.000004925635933300638 0.89439141157613 0.4472851471652012
vn 0.000004925635933300638 0.89439141157613 0.4472851471652012
vn 0.0000049256359334992324 0.89439141157613 0.4472851471652014
vn 0.0000049256359334992324 0.89439141157613 0.4472851471652014
vn 0.0000049256359334992324 0.89439141157613 0.4472851471652014
vn 0 0.999999995 0.00009999999950016662
vn 0 0.999999995 0.00009999999950016662
vn 0 0.999999995 0.00009999999950016662
vn 0 0.999999995 0.00009999999950016662
vn 0 0.999999995 0.00009999999950016662
vn 0 0.999999995 0.00009999999950016662
vn 0 0.9999999938012889 0.00011134371183160873
vn 0 0.9999999938012889 0.00011134371183160873
vn 0 0.9999999938012889 0.00011134371183160873
vn 0 0.9999999938012889 0.00011134371183160873
vn 0 0.9999999938012889 0.00011134371183160873
vn 0 0.9999999938012889 0.00011134371183160873
vn 0.000011934066704414358 0.9999999937300779 0.00011134371182367983
vn 0.000011934066704414358 0.9999999937300779 0.00011134371182367983
vn 0.000011934066704414358 0.9999999937300779 0.00011134371182367983
vn 5.914886826179174e-7 0.9999999949998253 0.00009999999950014915
vn 5.914886826179174e-7 0.9999999949998253 0.00009999999950014915
vn 5.914886826179174e-7 0.9999999949998253 0.00009999999950014915
vn 5.914886826179173e-7 0.9999999949998253 0.00009999999950014915
vn 5.914886826179173e-7 0.9999999949998253 0.00009999999950014915
vn 5.914886826179173e-7 0.9999999949998253 0.00009999999950014915
vn 0.000027378560446479865 0.9999999915873867 0.0001267897500338085
vn 0.000027378560446479865 0.9999999915873867 0.0001267897500338085
vn 0.000027378560446479865 0.9999999915873867 0.0001267897500338085
vn 0 0.9999999964776997 0.00008393211848384541
vn 0 0.9999999964776997 0.00008393211848384541
vn 0 0.9999999964776997 0.00008393211848384541
vn 0.000011934066723549847 0.9999999953335118 0.00009586737869706242
vn 0.000011934066723549847 0.9999999953335118 0.00009586737869706242
vn 0.000011934066723549847 0.9999999953335118 0.00009586737869706242
vn -0.000012266765963438436 0.9999999973568897 0.00007166412573358303
vn -0.000012266765963438436 0.9999999973568897 0.00007166412573358303
vn -0.000012266765963438436 0.9999999973568897 0.00007166412573358303
vn 0 0.9999999964776997 0.00008393211848384541
vn 0 0.9999999964776997 0.00008393211848384541
vn 0 0.9999999964776997 0.00008393211848384541
vn 0 0.999999995 0.00009999999949972253
vn 0 0.999999995 0.00009999999949972253
vn 0 0.999999995 0.00009999999949972253
vn 0 0.999999995 0.00009999999949972253
vn 0 0.999999995 0.00009999999949972253
vn 0 0.999999995 0.00009999999949972253
vn 0 0.99999999422587 0.00010746283003004956
vn 0 0.99999999422587 0.00010746283003004956
vn 0 0.99999999422587 0.00010746283003004956
vn 0 0.99999999422587 0.00010746283003004956
vn 0 0.99999999422587 0.00010746283003004956
vn 0 0.99999999422587 0.00010746283003004956
vn -0.000006144407772616124 0.9999999949811231 0.00009999999949827893
vn -0.000006144407772616124 0.9999999949811231 0.00009999999949827893
vn -0.000006144407772616124 0.9999999949811231 0.00009999999949827893
vn 0.0000013176765189480967 0.999999994225002 0.00010746283002995627
vn 0.0000013176765189480967 0.999999994225002 0.00010746283002995627
vn 0.0000013176765189480967 0.999999994225002 0.00010746283002995627
vn 0.00000705523595181971 0.9999999935678827 0.00011320096323464911
vn 0.00000705523595181971 0.9999999935678827 0.00011320096323464911
vn 0.00000705523595181971 0.9999999935678827 0.00011320096323464911
vn -0.000006144407772616079 0.9999999949811231 0.00009999999949783484
vn -0.000006144407772616079 0.9999999949811231 0.00009999999949783484
vn -0.000006144407772616079 0.9999999949811231 0.00009999999949783484
g Scene
usemtl material0
f 1/1/1 3/2/2 2/3/3
f 1/4/4 4/5/5 3/6/6
f 5/7/7 7/8/8 6/9/9
f 5/10/10 8/11/11 7/12/12
f 9/13/13 11/14/14 10/15/15
f 9/16/16 12/17/17 11/18/18
f 13/19/19 15/20/20 14/21/21
f 13/22/22 16/23/23 15/24/24
f 17/25/25 19/26/26 18/27/27
f 17/28/28 20/29/29 19/30/30
f 21/31/31 23/32/32 22/33/33
f 21/34/34 24/35/35 23/36/36
f 25/37/37 27/38/38 26/39/39
f 25/40/40 28/41/41 27/42/42
f 29/43/43 31/44/44 30/45/45
f 29/46/46 32/47/47 31/48/48
f 33/49/49 35/50/50 34/51/51
f 33/52/52 36/53/53 35/54/54
f 37/55/55 39/56/56 38/57/57
f 37/58/58 40/59/59 39/60/60
f 41/61/61 43/62/62 42/63/63
f 41/64/64 44/65/65 43/66/66
f 45/67/67 47/68/68 46/69/69
f 45/70/70 48/71/71 47/72/72
f 49/73/73 51/74/74 50/75/75
f 49/76/76 52/77/77 51/78/78
f 53/79/79 55/80/80 54/81/81
f 53/82/82 56/83/83 55/84/84
f 57/85/85 59/86/86 58/87/87
f 57/88/88 60/89/89 59/90/90
f 61/91/91 63/92/92 62/93/93
f 61/94/94 64/95/95 63/96/96
f 65/97/97 67/98/98 66/99/99
f 65/100/100 68/101/101 67/102/102
f 69/103/103 71/104/104 70/105/105
f 69/106/106 72/107/107 71/108/108
f 73/109/109 75/110/110 74/111/111
f 73/112/112 76/113/113 75/114/114
f 77/115/115 79/116/116 78/117/117
f 77/118/118 80/119/119 79/120/120
f 81/121/121 83/122/122 82/123/123
f 81/124/124 84/125/125 83/126/126
f 85/127/127 87/128/128 86/129/129
f 85/130/130 88/131/131 87/132/132
f 89/133/133 91/134/134 90/135/135
f 89/136/136 92/137/137 91/138/138
f 93/139/139 95/140/140 94/141/141
f 93/142/142 96/143/143 95/144/144
